<?xml version="1.0" encoding="UTF-8"?>
<svg width="18.0166834px" height="20.00101px" viewBox="0 0 18.0166834 20.00101" version="1.1" xmlns="http://www.w3.org/2000/svg" xmlns:xlink="http://www.w3.org/1999/xlink">
    <title>attach</title>
    <g id="dasboard---client-(company)" stroke="none" stroke-width="1" fill="none" fill-rule="evenodd">
        <g id="Project-(Discussion)" transform="translate(-1284, -942)" fill="#373737" fill-rule="nonzero">
            <g id="Contact" transform="translate(352, 294)">
                <g id="upload" transform="translate(919, 636)">
                    <g id="attach" transform="translate(13, 12)">
                        <path d="M7.32138298,20.00101 C5.34335298,20.00101 3.50234298,19.24601 2.13434298,17.87401 C-0.748657022,14.98301 -0.705467022,10.23601 2.23053298,7.29102 L7.95858298,1.547 C8.95358298,0.549 10.275383,8.8817842e-16 11.683383,8.8817842e-16 C13.091383,8.8817842e-16 14.412483,0.549 15.408483,1.547 C17.460483,3.605 17.460483,6.95201 15.408483,9.00901 L9.65238298,14.78001 C8.46838298,15.96601 6.40355298,15.96801 5.21955298,14.78001 C3.99955298,13.55601 3.99955298,11.56601 5.21955298,10.34301 L10.275483,5.27301 C10.666483,4.88201 11.298483,4.881 11.689483,5.271 C12.081483,5.661 12.081483,6.294 11.691483,6.685 L6.63556298,11.75501 C6.19256298,12.20001 6.19256298,12.92301 6.63556298,13.36801 C7.06458298,13.79701 7.80838298,13.79601 8.23638298,13.36801 L13.992483,7.59702 C15.267483,6.31802 15.267483,4.23802 13.992483,2.95902 C12.758483,1.72202 10.609583,1.72202 9.37558298,2.95902 L3.64752298,8.70301 C1.52453298,10.83201 1.48133298,14.38501 3.55133298,16.46101 C4.54033298,17.45301 5.88033298,18 7.32228298,18 C8.80228298,18 10.246583,17.40501 11.281583,16.36601 L16.308383,11.32401 C16.699383,10.93301 17.331483,10.93201 17.722483,11.32201 C18.114483,11.71201 18.114383,12.34501 17.724383,12.73601 L12.697283,17.77801 C11.287283,19.19101 9.32838298,20.00101 7.32138298,20.00101 Z" id="Path"></path>
                    </g>
                </g>
            </g>
        </g>
    </g>
</svg>