<?xml version="1.0" encoding="UTF-8"?>
<svg width="18.6499939px" height="20px" viewBox="0 0 18.6499939 20" version="1.1" xmlns="http://www.w3.org/2000/svg" xmlns:xlink="http://www.w3.org/1999/xlink">
    <title>bell</title>
    <g id="Symbols" stroke="none" stroke-width="1" fill="none" fill-rule="evenodd">
        <g id="Header/Light" transform="translate(-1133.67, -48)">
            <g id="bell" transform="translate(1131, 46)">
                <path d="M24,0 L24,24 L0,24 L0,0 L24,0 Z" id="Vector"></path>
                <g id="Group" transform="translate(2.67, 2)" fill="#84818A" fill-rule="nonzero">
                    <path d="M12.0999451,18.4100037 C11.5499451,19.3700036 10.5199658,20 9.33996582,20 C8.13996577,20 7.1199463,19.3700036 6.56994629,18.4100037 L12.0999451,18.4100037 Z" id="Vector"></path>
                    <path d="M18.2399902,16.5299988 C17.8099902,17.1599988 17.0999988,17.5800018 16.2799988,17.5800018 L2.38998413,17.5800018 C2.13998413,17.5800018 1.89999267,17.5400012 1.67999268,17.4700012 C1.1499927,17.3100012 0.709973156,16.9799988 0.409973145,16.5299988 C0.159973145,16.1499988 0,15.6900024 0,15.1900024 C0,14.1200024 0.709982932,13.2200037 1.66998291,12.9100037 C1.81998292,12.8700037 1.96997437,12.8400073 2.12997437,12.8200073 L2.12997437,8.25 C2.12997437,4.54999995 4.94997811,1.51000062 8.53997803,1.11000061 L8.53997803,0.779998779 C8.53997803,0.349998772 8.8899768,0 9.31997681,0 C9.74997681,0 10.0999756,0.349998772 10.0999756,0.779998779 L10.0999756,1.11000061 C11.7199756,1.29000062 13.2299939,2 14.3999939,3.17999268 C15.7599939,4.51999271 16.5099792,6.33000004 16.5099792,8.25 L16.5099792,12.8200073 C17.7099793,12.9500073 18.6499939,13.9600024 18.6499939,15.1900024 C18.6499939,15.6900024 18.4899902,16.1499988 18.2399902,16.5299988 Z" id="Vector"></path>
                </g>
            </g>
        </g>
    </g>
</svg>