<?xml version="1.0" encoding="UTF-8"?>
<svg width="21.6671235px" height="21.6666641px" viewBox="0 0 21.6671235 21.6666641" version="1.1" xmlns="http://www.w3.org/2000/svg" xmlns:xlink="http://www.w3.org/1999/xlink">
    <title>close</title>
    <defs>
        <rect id="path-1" x="0" y="0" width="25.9999981" height="25.9999981"></rect>
    </defs>
    <g id="dasboard---service-provider-(expert)" stroke="none" stroke-width="1" fill="none" fill-rule="evenodd" opacity="0.5">
        <g id="put-bid" transform="translate(-827.1678, -404.1678)">
            <g id="Popup---Rename" transform="translate(407, 383)">
                <g id="close" transform="translate(418, 19)">
                    <mask id="mask-2" fill="white">
                        <use xlink:href="#path-1"></use>
                    </mask>
                    <g id="Clip" fill-rule="nonzero"></g>
                    <g id="Close" mask="url(#mask-2)" fill="#A3B2C7" fill-rule="nonzero">
                        <g transform="translate(2.1678, 2.1678)" id="Vector">
                            <path d="M18.4974874,3.16963553 C14.2704171,-1.05654518 7.39600771,-1.05654518 3.16893737,3.16963553 C-1.05631246,7.39581623 -1.05631246,14.2720014 3.16893737,18.4981821 C5.28247254,20.6108278 8.05805436,21.6666641 10.8336782,21.6666641 C13.609302,21.6666641 16.3839522,20.6107855 18.4974874,18.4981821 C22.7236688,14.2720437 22.7236688,7.39581623 18.4974874,3.16963553 Z M15.3036868,14.0272426 C15.6568318,14.3803875 15.6568318,14.9512371 15.3036868,15.304382 C15.2199151,15.3883733 15.1203773,15.4549903 15.0107895,15.5004079 C14.9012017,15.5458255 14.7837221,15.5691493 14.6650957,15.5690399 C14.5464699,15.5691447 14.4289917,15.5458187 14.3194045,15.5004014 C14.2098173,15.4549841 14.1102804,15.3883696 14.0265059,15.304382 L10.8336355,12.1105819 L7.64165546,15.3034504 C7.47226848,15.4727996 7.24258699,15.567989 7.00306434,15.5681083 C6.88443859,15.5682131 6.76696031,15.5448872 6.65737315,15.4994699 C6.54778598,15.4540525 6.44824902,15.387438 6.36447451,15.3034504 C6.01132955,14.9503055 6.01132955,14.3785681 6.36447451,14.0263123 L9.5564546,10.8334438 L6.36358428,7.64057403 C6.01043931,7.28742912 6.01043931,6.71569174 6.36358428,6.36343593 C6.71584014,6.01029103 7.28757891,6.01029103 7.64072388,6.36343593 L10.8335929,9.55630444 L14.0264632,6.36343593 C14.3796082,6.01029103 14.9504579,6.01029103 15.3036028,6.36343593 C15.6567478,6.71569174 15.6567478,7.28742912 15.3036028,7.64057403 L12.1107325,10.8334438 L15.3036868,14.0272426 Z"></path>
                        </g>
                    </g>
                </g>
            </g>
        </g>
    </g>
</svg>