<?xml version="1.0" encoding="UTF-8"?>
<svg width="18.7487583px" height="18.7487587px" viewBox="0 0 18.7487583 18.7487587" version="1.1" xmlns="http://www.w3.org/2000/svg" xmlns:xlink="http://www.w3.org/1999/xlink">
    <title>edit</title>
    <g id="dasboard---service-provider-(expert)" stroke="none" stroke-width="1" fill="none" fill-rule="evenodd">
        <g id="Experience" transform="translate(-1301, -258)" fill="#25314C" fill-rule="nonzero">
            <g id="Contact" transform="translate(352, 220)">
                <g id="Group" transform="translate(25, 25)">
                    <g id="edit" transform="translate(924, 13)">
                        <path d="M13.75,18.7487587 L3.75,18.7487587 C1.332,18.7487587 0,17.4167487 0,14.9987487 L0,4.99875873 C0,2.58075873 1.332,1.24875873 3.75,1.24875873 L6.75,1.24875873 C7.164,1.24875873 7.5,1.58475873 7.5,1.99875873 C7.5,2.41275873 7.164,2.74875873 6.75,2.74875873 L3.75,2.74875873 C2.173,2.74875873 1.5,3.42175873 1.5,4.99875873 L1.5,14.9987487 C1.5,16.5757487 2.173,17.2487587 3.75,17.2487587 L13.75,17.2487587 C15.327,17.2487587 16,16.5757487 16,14.9987487 L16,11.9987487 C16,11.5847487 16.336,11.2487587 16.75,11.2487587 C17.164,11.2487587 17.5,11.5847487 17.5,11.9987487 L17.5,14.9987487 C17.5,17.4167487 16.168,18.7487587 13.75,18.7487587 Z M18.33,2.02875873 L16.72,0.418768727 C16.15,-0.141231273 15.24,-0.141252273 14.67,0.428747727 L13.32,1.78875873 L16.96,5.42874873 L18.32,4.07873873 C18.89,3.50873873 18.89,2.59875873 18.33,2.02875873 Z M12.26,2.84875873 L5.75,9.38876873 L5.75,12.9987487 L9.35999,12.9987487 L15.9,6.48874873 L12.26,2.84875873 Z" id="Shape"></path>
                    </g>
                </g>
            </g>
        </g>
    </g>
</svg>