<?xml version="1.0" encoding="UTF-8"?>
<svg width="20px" height="20px" viewBox="0 0 20 20" version="1.1" xmlns="http://www.w3.org/2000/svg" xmlns:xlink="http://www.w3.org/1999/xlink">
    <title>ic_error</title>
    <g id="dasboard---client-(company)" stroke="none" stroke-width="1" fill="none" fill-rule="evenodd">
        <g id="Deactivate-account" transform="translate(-423, -275)" fill-rule="nonzero">
            <g id="Contact" transform="translate(352, 220)">
                <g id="Card" transform="translate(42, 29)">
                    <g id="ic_error" transform="translate(27, 24)">
                        <polygon id="Bounds" points="0 0 24 0 24 24 0 24"></polygon>
                        <path d="M12,2 C17.52,2 22,6.48000002 22,12 C22,17.52 17.52,22 12,22 C6.48000002,22 2,17.52 2,12 C2,6.48000002 6.48000002,2 12,2 Z M13,15 L11,15 L11,17 L13,17 L13,15 Z M13,7 L11,7 L11,13 L13,13 L13,7 Z" id="Shape" fill="#84818A"></path>
                    </g>
                </g>
            </g>
        </g>
    </g>
</svg>