<?xml version="1.0" encoding="UTF-8"?>
<svg width="18.0106344px" height="18.0106844px" viewBox="0 0 18.0106344 18.0106844" version="1.1" xmlns="http://www.w3.org/2000/svg" xmlns:xlink="http://www.w3.org/1999/xlink">
    <title>linkedin</title>
    <g id="dasboard---client-(company)" stroke="none" stroke-width="1" fill="none" fill-rule="evenodd">
        <g id="expert-details" transform="translate(-1016, -330)" fill="#25314C" fill-rule="nonzero">
            <g id="Contact" transform="translate(352, 220)">
                <g id="Edit-avt" transform="translate(26, 15)">
                    <g id="Group-3-Copy" transform="translate(638, 94)">
                        <g id="linkedin" transform="translate(0, 1)">
                            <path d="M4.04068438,18.0006844 L0.250684379,18.0006844 L0.250684379,6.63068439 L4.04068438,6.63068439 L4.04068438,18.0006844 Z M4.42068438,2.21068439 C4.42068438,1.01068439 3.47069438,0.0406843858 2.27069438,0.000684385759 C1.05069438,-0.0293156142 0.0306843789,0.930674386 0.000684378865,2.15067439 C-0.0293156211,3.37067439 0.930684379,4.39067439 2.15068438,4.42067439 C3.39068438,4.43067439 4.40068438,3.45068439 4.42068438,2.21068439 Z M17.9506344,11.1306844 C17.9506344,7.59068439 15.6607344,6.51067439 13.7107344,6.51067439 C12.3407344,6.47067439 11.0507344,7.14068439 10.3007344,8.28068439 L10.3007344,6.64068439 L6.64068438,6.64068439 L6.64068438,18.0106844 L10.4306344,18.0106844 L10.4306344,12.1106844 C10.4306344,12.0506844 10.4306344,11.9906844 10.4306344,11.9306844 C10.4306344,11.9306844 10.4306344,11.9306844 10.4306344,11.9206844 C10.3506344,10.7106844 11.2706344,9.66068439 12.4806344,9.58068439 C13.4706344,9.58068439 14.2207344,10.2206844 14.2207344,12.0206844 L14.2207344,18.0106844 L18.0106344,18.0106844 L17.9607344,11.1406844 L17.9506344,11.1306844 Z" id="Shape"></path>
                        </g>
                    </g>
                </g>
            </g>
        </g>
    </g>
</svg>