<?xml version="1.0" encoding="UTF-8"?>
<svg width="45px" height="45px" viewBox="0 0 45 45" version="1.1" xmlns="http://www.w3.org/2000/svg" xmlns:xlink="http://www.w3.org/1999/xlink">
    <title>location</title>
    <g id="dasboard---client-(company)" stroke="none" stroke-width="1" fill="none" fill-rule="evenodd">
        <g id="Contact-us" transform="translate(-1087, -260)" fill-rule="nonzero">
            <g id="Group-2" transform="translate(1065, 243)">
                <g id="location" transform="translate(22, 17)">
                    <circle id="Ellipse" fill="#7288FA" cx="22.5" cy="22.5" r="22.5"></circle>
                    <g id="Group" transform="translate(14, 13)" fill="#FFFFFF">
                        <path d="M8.5,0 C3.813,0 0,3.813 0,8.5 C0,13.483 4.629,16.541 7.692,18.564 L8.222,18.916 C8.306,18.972 8.403,19 8.499,19 C8.595,19 8.692,18.972 8.776,18.916 L9.306,18.564 C12.369,16.541 16.9980008,13.483 16.9980008,8.5 C17,3.813 13.187,0 8.5,0 Z M8.5,11 C7.119,11 6,9.881 6,8.5 C6,7.119 7.119,6 8.5,6 C9.881,6 11,7.119 11,8.5 C11,9.881 9.881,11 8.5,11 Z" id="Shape"></path>
                    </g>
                </g>
            </g>
        </g>
    </g>
</svg>