<?xml version="1.0" encoding="UTF-8"?>
<svg width="203px" height="53.807px" viewBox="0 0 203 53.807" version="1.1" xmlns="http://www.w3.org/2000/svg" xmlns:xlink="http://www.w3.org/1999/xlink">
    <title>Logo</title>
    <defs>
        <polygon id="path-1" points="0 0 57.43 0 57.43 53.807 0 53.807"></polygon>
    </defs>
    <g id="Symbols" stroke="none" stroke-width="1" fill="none" fill-rule="evenodd">
        <g id="Header/Light" transform="translate(-34, -26)">
            <g id="Logo" transform="translate(34, 26)">
                <text id="symlink" font-family="Poppins-SemiBold, Poppins" font-size="22" font-weight="500" letter-spacing="6.875" fill="#333F4E">
                    <tspan x="66" y="40">SYM</tspan>
                    <tspan x="133.793" y="40" font-family="Poppins-Light, Poppins" font-weight="300">LINK</tspan>
                </text>
                <g id="Group-6">
                    <g id="Group-3">
                        <mask id="mask-2" fill="white">
                            <use xlink:href="#path-1"></use>
                        </mask>
                        <g id="Clip-2"></g>
                        <path d="M31.219,10.5012 C27.6,16.7612 24.189,22.6592 20.617,28.8372 L37.049,28.8372 C36.194,30.4802 35.502,31.9172 34.713,33.3002 C33.826,34.8562 32.857,36.3652 31.914,37.8892 C29.542,41.7242 27.614,45.8182 25.038,49.5402 C24.122,50.8632 23.525,52.4082 22.805,53.8072 L0,53.8072 C1.071,51.9592 2.105,50.1752 3.146,48.3792 L19.684,48.3792 C22.377,43.7752 25.081,39.1532 27.847,34.4242 L11.347,34.4242 C13.312,30.8302 15.15,27.4602 17.25,24.2222 C18.845,21.7612 20.069,19.0612 21.537,16.5132 C23.013,13.9512 24.596,11.4512 26.112,8.9122 C26.787,7.7802 27.416,6.6212 28.059,5.4712 C29.078,3.6472 30.09,1.8192 31.103,-0.0008 C33.539,3.5832 35.542,7.4872 37.839,11.2132 C39.454,13.8342 40.829,16.6392 42.438,19.2822 C44.624,22.8702 46.565,26.5962 48.814,30.1562 C50.287,32.4882 51.556,35.0012 52.923,37.4292 C54.37,40.0002 55.878,42.5382 57.43,45.2122 C56.476,45.5012 55.512,45.3292 54.572,45.3592 C53.657,45.3892 52.74,45.3662 51.556,45.3662 C51.158,44.7912 50.631,44.1152 50.195,43.3842 C48.482,40.5142 46.929,37.5542 45.104,34.7412 C43.507,32.2812 42.282,29.5822 40.814,27.0332 C39.338,24.4712 37.755,21.9702 36.237,19.4322 C35.28,17.8332 34.338,16.2242 33.421,14.6022 C32.733,13.3852 32.096,12.1392 31.219,10.5012" id="Fill-1" fill="#7667E2" mask="url(#mask-2)"></path>
                    </g>
                    <path d="M26.5211,53.7811 C30.7751,46.4431 35.0001,39.1571 39.3441,31.6631 C40.8441,33.0291 41.4261,34.9121 42.6431,36.5831 C40.4061,40.4441 38.1951,44.2591 35.9761,48.0881 C35.9911,48.1241 36.0031,48.1951 36.0441,48.2381 C36.0961,48.2931 36.1721,48.3611 36.2381,48.3611 C43.8871,48.3661 51.5351,48.3661 59.2741,48.3661 C60.2871,50.1291 61.3151,51.9181 62.3851,53.7811 L26.5211,53.7811 Z" id="Fill-4" fill="#7667E2"></path>
                </g>
            </g>
        </g>
    </g>
</svg>