<?xml version="1.0" encoding="UTF-8"?>
<svg width="4px" height="18px" viewBox="0 0 4 18" version="1.1" xmlns="http://www.w3.org/2000/svg" xmlns:xlink="http://www.w3.org/1999/xlink">
    <title>info</title>
    <g id="dasboard---service-provider-(expert)" stroke="none" stroke-width="1" fill="none" fill-rule="evenodd">
        <g id="Terms-and-condition" transform="translate(-70, -559)" fill="#FFFFFF" fill-rule="nonzero">
            <g id="Submenu" transform="translate(26, 156)">
                <g id="Group" transform="translate(20, 396)">
                    <g id="Edit-Profile" transform="translate(10, 0)">
                        <g id="info" transform="translate(14, 7)">
                            <path d="M3.4613735,16.6153846 C3.4613735,17.3796923 2.79108274,18 1.96518877,18 C1.1392948,18 0.46900404,17.3796923 0.46900404,16.6153846 L0.46900404,8.17661538 C0.46900404,7.41230769 1.1392948,6.792 1.96518877,6.792 C2.79108274,6.792 3.4613735,7.41230769 3.4613735,8.17661538 L3.4613735,16.6153846 Z M2.00508703,3.69230769 C0.903895068,3.69230769 0,2.86523077 0,1.84615385 C0,0.827076923 0.883945938,0 1.9851379,0 L2.00508703,0 C3.1082739,0 4,0.827076923 4,1.84615385 C4,2.86523077 3.10627899,3.69230769 2.00508703,3.69230769 Z" id="Shape"></path>
                        </g>
                    </g>
                </g>
            </g>
        </g>
    </g>
</svg>