<?xml version="1.0" encoding="UTF-8"?>
<svg width="24px" height="24px" viewBox="0 0 24 24" version="1.1" xmlns="http://www.w3.org/2000/svg" xmlns:xlink="http://www.w3.org/1999/xlink">
    <title>menu_bids</title>
    <g id="dasboard---service-provider-(expert)" stroke="none" stroke-width="1" fill="none" fill-rule="evenodd">
        <g id="Terms-and-condition" transform="translate(-56, -253)" fill="#C1C5CA" fill-rule="nonzero">
            <g id="Submenu" transform="translate(26, 156)">
                <g id="Menu" transform="translate(0, 80)">
                    <g id="menu_bids" transform="translate(30, 17)">
                        <path d="M24,0.923076923 C24,1.43261538 23.5864615,1.84615385 23.0769231,1.84615385 L21.8461538,1.84615385 L21.8461538,13.2307692 C21.8461538,16.0492308 20.3569231,17.5384615 17.5384615,17.5384615 L12.9230769,17.5384615 L12.9230769,20.1230769 L16.2092308,22.3138462 C16.6276923,22.5969231 16.7384615,23.1630769 16.4553846,23.5938462 C16.2830769,23.8523077 15.9876923,24 15.6923077,24 C15.52,24 15.3353846,23.9507692 15.1753846,23.84 L12,21.7230769 L8.82461538,23.84 C8.39384615,24.1230769 7.82769231,24.0123077 7.54461538,23.5938462 C7.26153846,23.1630769 7.37230769,22.5969231 7.79076923,22.3138462 L11.0769231,20.1230769 L11.0769231,17.5384615 L6.46153846,17.5384615 C3.64307692,17.5384615 2.15384615,16.0492308 2.15384615,13.2307692 L2.15384615,1.84615385 L0.923076923,1.84615385 C0.413538462,1.84615385 0,1.43261538 0,0.923076923 C0,0.413538462 0.413538462,0 0.923076923,0 L23.0769231,0 C23.5864615,0 24,0.413538462 24,0.923076923 Z" id="Path"></path>
                    </g>
                </g>
            </g>
        </g>
    </g>
</svg>