<?xml version="1.0" encoding="UTF-8"?>
<svg width="15px" height="18px" viewBox="0 0 15 18" version="1.1" xmlns="http://www.w3.org/2000/svg" xmlns:xlink="http://www.w3.org/1999/xlink">
    <title>menu_terms</title>
    <g id="dasboard---service-provider-(expert)" stroke="none" stroke-width="1" fill="none" fill-rule="evenodd">
        <g id="Terms-and-condition" transform="translate(-65, -627)" fill="#FFFFFF" fill-rule="nonzero">
            <g id="Submenu" transform="translate(26, 156)">
                <g id="Group" transform="translate(20, 396)">
                    <g id="Edit-Profile" transform="translate(10, 68)">
                        <g id="menu_terms" transform="translate(9, 7)">
                            <path d="M14.25,5.25 L12,5.25 C10.42,5.25 9.75,4.58 9.75,3 L9.75,0.75 L14.25,5.25 Z M15,6.75 L15,15 C15,17 14,18 12,18 L3,18 C1,18 0,17 0,15 L0,3 C0,1 1,0 3,0 L8.25,0 L8.25,3 C8.25,5.42 9.58,6.75 12,6.75 L15,6.75 Z M4.75,13 C4.75,12.586 4.414,12.25 4,12.25 C3.586,12.25 3.25,12.586 3.25,13 C3.25,13.414 3.586,13.75 4,13.75 C4.414,13.75 4.75,13.414 4.75,13 Z M4.75,9 C4.75,8.586 4.414,8.25 4,8.25 C3.586,8.25 3.25,8.586 3.25,9 C3.25,9.414 3.586,9.75 4,9.75 C4.414,9.75 4.75,9.414 4.75,9 Z M11.75,13 C11.75,12.586 11.414,12.25 11,12.25 L6.5,12.25 C6.086,12.25 5.75,12.586 5.75,13 C5.75,13.414 6.086,13.75 6.5,13.75 L11,13.75 C11.414,13.75 11.75,13.414 11.75,13 Z M11.75,9 C11.75,8.586 11.414,8.25 11,8.25 L6.5,8.25 C6.086,8.25 5.75,8.586 5.75,9 C5.75,9.414 6.086,9.75 6.5,9.75 L11,9.75 C11.414,9.75 11.75,9.414 11.75,9 Z" id="Shape"></path>
                        </g>
                    </g>
                </g>
            </g>
        </g>
    </g>
</svg>