<?xml version="1.0" encoding="UTF-8"?>
<svg width="24px" height="24px" viewBox="0 0 24 24" version="1.1" xmlns="http://www.w3.org/2000/svg" xmlns:xlink="http://www.w3.org/1999/xlink">
    <title>menu_support</title>
    <g id="dasboard---service-provider-(expert)" stroke="none" stroke-width="1" fill="none" fill-rule="evenodd">
        <g id="Terms-and-condition" transform="translate(-56, -414)" fill="#C1C5CA" fill-rule="nonzero">
            <g id="Submenu" transform="translate(26, 156)">
                <g id="Menu" transform="translate(0, 240)">
                    <g id="Icon-+-Name" transform="translate(30, 17)">
                        <g id="menu_support" transform="translate(0, 1)">
                            <path d="M7.656,8.915988 C7.632,8.903988 7.620024,8.880012 7.596024,8.868012 L2.915988,4.175976 C1.091988,6.275976 0,9.012 0,12 C0,14.988 1.091988,17.724 2.915988,19.824 L7.596024,15.132 C7.608024,15.108 7.632,15.096 7.656,15.084 C7.044,14.22 6.672,13.14 6.672,12 C6.672,10.86 7.044,9.78 7.656,8.915988 Z M12,0 C9.012,0 6.287988,1.091976 4.187988,2.903976 L8.868012,7.596024 C8.892012,7.620024 8.903988,7.644012 8.915988,7.668012 C9.78,7.044012 10.848,6.672 12,6.672 C13.152,6.672 14.22,7.044 15.096,7.656 C15.108,7.632 15.12,7.620024 15.144,7.596024 L19.824,2.903976 C17.736,1.091976 15,0 12,0 Z M21.096,4.175976 L16.416,8.868012 C16.392,8.880012 16.38,8.903988 16.356,8.915988 C16.968,9.78 17.34,10.86 17.34,12 C17.34,13.14 16.968,14.22 16.356,15.084 C16.38,15.096 16.392,15.108 16.416,15.132 L21.096,19.824 C22.908,17.724 24,14.988 24,12 C24,9.012 22.908,6.275976 21.096,4.175976 Z M15.096,16.344 C14.22,16.956 13.152,17.328 12,17.328 C10.848,17.328 9.78,16.956 8.915988,16.332 C8.903988,16.356 8.892012,16.38 8.868012,16.404 L4.187988,21.096 C6.287988,22.908 9.012,24 12,24 C15,24 17.736,22.908 19.824,21.096 L15.144,16.404 C15.12,16.38 15.108,16.368 15.096,16.344 Z" id="Shape"></path>
                        </g>
                    </g>
                </g>
            </g>
        </g>
    </g>
</svg>