<?xml version="1.0" encoding="UTF-8"?>
<svg width="24px" height="24px" viewBox="0 0 24 24" version="1.1" xmlns="http://www.w3.org/2000/svg" xmlns:xlink="http://www.w3.org/1999/xlink">
    <title>menu_settings</title>
    <g id="dasboard---service-provider-(expert)" stroke="none" stroke-width="1" fill="none" fill-rule="evenodd">
        <g id="Terms-and-condition" transform="translate(-57, -494)" fill="#C1C5CA" fill-rule="nonzero">
            <g id="Submenu" transform="translate(26, 156)">
                <g id="Menu" transform="translate(0, 320)">
                    <g id="Icon-+-Name" transform="translate(31, 17)">
                        <g id="menu_settings" transform="translate(0, 1)">
                            <path d="M23.7733333,15.4666667 C22.5333333,14.7466667 21.7733333,13.4266667 21.7733333,12 C21.7733333,10.5733333 22.5333333,9.25332 23.7733333,8.53332 C23.9866667,8.39998667 24.0666667,8.13333333 23.9333333,7.92 L21.7066667,4.08 C21.6266667,3.93333333 21.48,3.85334667 21.3333333,3.85334667 C21.2533333,3.85334667 21.1733333,3.88 21.1066667,3.92 C20.4933333,4.26666667 19.8,4.45333333 19.1066667,4.45333333 C18.4,4.45333333 17.7066667,4.26665333 17.08,3.90665333 C15.84,3.18665333 15.08,1.88 15.08,0.453333333 C15.08,0.2 14.88,0 14.64,0 L9.36,0 C9.11998667,0 8.92,0.2 8.92,0.453333333 C8.92,1.88 8.16,3.18665333 6.92,3.90665333 C6.29333333,4.26665333 5.60001333,4.45333333 4.89334667,4.45333333 C4.20001333,4.45333333 3.50668,4.26666667 2.89334667,3.92 C2.68001333,3.78666667 2.41333333,3.86666667 2.29333333,4.08 L0.0533466667,7.92 C0.0133466667,7.98666667 0,8.06668 0,8.13334667 C0,8.29334667 0.0800133333,8.43998667 0.22668,8.53332 C1.46668,9.25332 2.22668,10.56 2.22668,11.9866667 C2.22668,13.4266667 1.46665333,14.7466667 0.239986667,15.4666667 L0.22668,15.4666667 C0.0133466667,15.6 -0.06668,15.8666667 0.0666533333,16.08 L2.29333333,19.92 C2.37333333,20.0666667 2.52,20.1466667 2.66666667,20.1466667 C2.74666667,20.1466667 2.82668,20.12 2.89334667,20.08 C4.14668,19.3733333 5.68,19.3733333 6.92,20.0933333 C8.14666667,20.8133333 8.90665333,22.12 8.90665333,23.5466667 C8.90665333,23.8 9.10665333,24 9.36,24 L14.64,24 C14.88,24 15.08,23.8 15.08,23.5466667 C15.08,22.12 15.84,20.8133333 17.08,20.0933333 C17.7066667,19.7333333 18.4,19.5466667 19.1066667,19.5466667 C19.8,19.5466667 20.4933333,19.7333333 21.1066667,20.08 C21.32,20.2133333 21.5866667,20.1333333 21.7066667,19.92 L23.9466667,16.08 C23.9866667,16.0133333 24,15.9333333 24,15.8666667 C24,15.7066667 23.92,15.56 23.7733333,15.4666667 Z M12,16 C9.78666667,16 8,14.2133333 8,12 C8,9.78666667 9.78666667,8 12,8 C14.2133333,8 16,9.78666667 16,12 C16,14.2133333 14.2133333,16 12,16 Z" id="Shape"></path>
                        </g>
                    </g>
                </g>
            </g>
        </g>
    </g>
</svg>