<?xml version="1.0" encoding="UTF-8"?>
<svg width="19.4998243px" height="19.2508866px" viewBox="0 0 19.4998243 19.2508866" version="1.1" xmlns="http://www.w3.org/2000/svg" xmlns:xlink="http://www.w3.org/1999/xlink">
    <title>menu_bell</title>
    <g id="dasboard---service-provider-(expert)" stroke="none" stroke-width="1" fill="none" fill-rule="evenodd">
        <g id="Terms-and-condition" transform="translate(-62, -763)" fill="#FFFFFF" fill-rule="nonzero">
            <g id="Submenu" transform="translate(26, 156)">
                <g id="Group" transform="translate(20, 396)">
                    <g id="Recent-files" transform="translate(10, 204)">
                        <g id="Icon-Recent-Files" transform="translate(0, 0)">
                            <g id="menu_bell" transform="translate(6, 7)">
                                <path d="M18.1999122,15.9678866 C18.1169122,16.1408866 17.9419122,16.2508866 17.7499122,16.2508866 L1.74992222,16.2508866 C1.55792222,16.2508866 1.38290222,16.1408866 1.29990222,15.9678866 C1.21690222,15.7948866 1.23990222,15.5888866 1.35990222,15.4388866 C1.37890222,15.4158866 3.25593222,13.0328866 3.25593222,10.2508866 L3.25593222,6.74587655 C3.25593222,3.16487655 6.16992222,0.250886554 9.75091222,0.250886554 C13.3319122,0.250886554 16.2459122,3.16487655 16.2459122,6.74587655 L16.2459122,10.2508866 C16.2459122,13.0318866 18.1219122,15.4148866 18.1419122,15.4388866 C18.2599122,15.5888866 18.2839122,15.7938866 18.1999122,15.9678866 Z M1.49592222,5.82587655 C1.66692222,4.11687655 2.35693222,2.53387655 3.49293222,1.24787655 C3.76693222,0.936876554 3.73692222,0.462886554 3.42692222,0.188886554 C3.11592222,-0.0861134459 2.64193222,-0.0561234459 2.36793222,0.254876554 C1.02393222,1.77787655 0.205912224,3.65287655 0.00391222408,5.67687655 C-0.0380877759,6.08887655 0.262902224,6.45687655 0.674902224,6.49787655 C0.699902224,6.49987655 0.725922224,6.50188655 0.750922224,6.50188655 C1.13092222,6.50088655 1.45792222,6.21187655 1.49592222,5.82587655 Z M18.8249122,6.49688655 C19.2369122,6.45588655 19.5379122,6.08788655 19.4959122,5.67588655 C19.2939122,3.65288655 18.4759122,1.77788655 17.1319122,0.253886554 C16.8589122,-0.0561134459 16.3839122,-0.0871234459 16.0729122,0.187876554 C15.7619122,0.461876554 15.7329122,0.935886554 16.0069122,1.24688655 C17.1419122,2.53288655 17.8329122,4.11588655 18.0039122,5.82488655 C18.0429122,6.21188655 18.3689122,6.49987655 18.7489122,6.49987655 C18.7739122,6.50087655 18.7989122,6.49988655 18.8249122,6.49688655 Z M11.9139122,17.5018866 C11.8249122,17.3468866 11.6599122,17.2508866 11.4799122,17.2508866 L8.01991222,17.2508866 C7.84091222,17.2508866 7.67591222,17.3468866 7.58591222,17.5018866 C7.49591222,17.6568866 7.49793222,17.8488866 7.58793222,18.0028866 C8.04391222,18.7838866 8.85191222,19.2508866 9.74991222,19.2508866 C10.6479122,19.2508866 11.4559122,18.7838866 11.9119122,18.0028866 C12.0019122,17.8488866 12.0029122,17.6568866 11.9139122,17.5018866 Z" id="Shape"></path>
                            </g>
                        </g>
                    </g>
                </g>
            </g>
        </g>
    </g>
</svg>