<?xml version="1.0" encoding="UTF-8"?>
<svg width="24px" height="24px" viewBox="0 0 24 24" version="1.1" xmlns="http://www.w3.org/2000/svg" xmlns:xlink="http://www.w3.org/1999/xlink">
    <title>menu_wallet</title>
    <g id="dasboard---service-provider-(expert)" stroke="none" stroke-width="1" fill="none" fill-rule="evenodd">
        <g id="Terms-and-condition" transform="translate(-56, -335)" fill="#C1C5CA" fill-rule="nonzero">
            <g id="Submenu" transform="translate(26, 156)">
                <g id="Menu" transform="translate(0, 160)">
                    <g id="Icon-+-Name" transform="translate(30, 17)">
                        <g id="menu_wallet" transform="translate(0, 2)">
                            <path d="M13.6666667,14.6666667 C13.6666667,17.0533333 15.6133333,19 18,19 L24,19 L24,20 C24,22.6666667 22.6666667,24 20,24 L4,24 C1.33333333,24 0,22.6666667 0,20 L0,2.66666667 C0,4.13333333 1.2,5.33333333 2.66666667,5.33333333 L20,5.33333333 C22.6666667,5.33333333 24,6.66666667 24,9.33333333 L24,10.3333333 L18,10.3333333 C15.6133333,10.3333333 13.6666667,12.28 13.6666667,14.6666667 Z M18,12.3333333 C16.72,12.3333333 15.6666667,13.3866667 15.6666667,14.6666667 C15.6666667,15.9466667 16.72,17 18,17 L24,17 L24,12.3333333 L18,12.3333333 Z M18.6933333,16 C17.96,16 17.3466667,15.4 17.3466667,14.6666667 C17.3466667,13.9333333 17.9466667,13.3333333 18.68,13.3333333 L18.6933333,13.3333333 C19.4266667,13.3333333 20.0266667,13.9333333 20.0266667,14.6666667 C20.0266667,15.4 19.4266667,16 18.6933333,16 Z M16,0 L3.66666667,0 C2.74666667,0 2,0.746666667 2,1.66666667 C2,2.58666667 2.74666667,3.33333333 3.66666667,3.33333333 L19.96,3.33333333 C19.76,1.10666667 18.44,0 16,0 Z" id="Shape"></path>
                        </g>
                    </g>
                </g>
            </g>
        </g>
    </g>
</svg>