<?xml version="1.0" encoding="UTF-8"?>
<svg width="21.6666679px" height="21.6666679px" viewBox="0 0 21.6666679 21.6666679" version="1.1" xmlns="http://www.w3.org/2000/svg" xmlns:xlink="http://www.w3.org/1999/xlink">
    <title>menu_project</title>
    <defs>
        <rect id="path-1" x="0" y="0" width="26" height="26"></rect>
    </defs>
    <g id="dasboard---service-provider-(expert)" stroke="none" stroke-width="1" fill="none" fill-rule="evenodd">
        <g id="Terms-and-condition" transform="translate(-58.1667, -175.1667)">
            <g id="Submenu" transform="translate(26, 156)">
                <g id="menu_project" transform="translate(30, 17)">
                    <mask id="mask-2" fill="white">
                        <use xlink:href="#path-1"></use>
                    </mask>
                    <g id="Clip" fill-rule="nonzero"></g>
                    <g id="Dashboard" mask="url(#mask-2)" fill="#C1C5CA" fill-rule="nonzero">
                        <g transform="translate(2.1667, 2.1667)" id="Vector">
                            <path d="M8.35063854,0 L1.57980481,0 C0.708652398,0 0,0.708652398 0,1.57980481 L0,5.64230505 C0,6.51362672 0.708652398,7.22227904 1.57980481,7.22227904 L8.35063854,7.22227904 C9.22196021,7.22227904 9.93061253,6.51362672 9.93061253,5.64230505 L9.93061253,1.57980481 C9.93061253,0.708652398 9.22196021,0 8.35063854,0 Z M8.35063854,9.02772191 L1.57980481,9.02772191 C0.708652398,9.02772191 0,9.73637423 0,10.6076959 L0,20.0868631 C0,20.9580155 0.708652398,21.6666679 1.57980481,21.6666679 L8.35063854,21.6666679 C9.22196021,21.6666679 9.93061253,20.9580155 9.93061253,20.0868631 L9.93061253,10.6076959 C9.93061253,9.73637423 9.22196021,9.02772191 8.35063854,9.02772191 Z M20.0868631,14.4443889 L13.3160294,14.4443889 C12.4447077,14.4443889 11.7360554,15.1530412 11.7360554,16.0243629 L11.7360554,20.0868631 C11.7360554,20.9580155 12.4447077,21.6666679 13.3160294,21.6666679 L20.0868631,21.6666679 C20.9580155,21.6666679 21.6666679,20.9580155 21.6666679,20.0868631 L21.6666679,16.0243629 C21.6666679,15.1530412 20.9580155,14.4443889 20.0868631,14.4443889 Z M20.0868631,0 L13.3160294,0 C12.4447077,0 11.7360554,0.708652398 11.7360554,1.57980481 L11.7360554,11.058972 C11.7360554,11.9302937 12.4447077,12.638946 13.3160294,12.638946 L20.0868631,12.638946 C20.9580155,12.638946 21.6666679,11.9302937 21.6666679,11.058972 L21.6666679,1.57980481 C21.6666679,0.708652398 20.9580155,0 20.0868631,0 Z"></path>
                        </g>
                    </g>
                </g>
            </g>
        </g>
    </g>
</svg>