<?xml version="1.0" encoding="UTF-8"?>
<svg width="20.25px" height="20.25px" viewBox="0 0 20.25 20.25" version="1.1" xmlns="http://www.w3.org/2000/svg" xmlns:xlink="http://www.w3.org/1999/xlink">
    <title>menu_deactivate</title>
    <g id="dasboard---service-provider-(expert)" stroke="none" stroke-width="1" fill="none" fill-rule="evenodd">
        <g id="Terms-and-condition" transform="translate(-62, -830)" fill="#FFFFFF" fill-rule="nonzero">
            <g id="Submenu" transform="translate(26, 156)">
                <g id="Group" transform="translate(20, 396)">
                    <g id="Invite-a-Friend" transform="translate(10, 272)">
                        <g id="menu_deactivate" transform="translate(6, 6)">
                            <path d="M3.50903,4 C3.50903,1.794 5.30303,0 7.509,0 C9.715,0 11.509,1.794 11.509,4 C11.509,6.206 9.715,8 7.509,8 C5.30303,8 3.50903,6.206 3.50903,4 Z M9.25,15.5 C9.25,13.58 10.11,11.88 11.47,10.73 C11.52,10.68 11.5601,10.6 11.5601,10.52 C11.5601,10.317 11.308,10.233 11.26,10.22 C10.74,10.08 10.15,10 9.5,10 L5.5,10 C1.44,10 0,12.97 0,15.52 C0,17.8 1.21,19 3.5,19 L9.79,19 C9.96,19 10.093,18.871 10.099,18.702 C10.102,18.622 10.0699,18.571 10.0699,18.571 C9.5499,17.66 9.25,16.61 9.25,15.5 Z M20.25,15.5 C20.25,18.119 18.119,20.25 15.5,20.25 C12.881,20.25 10.75,18.119 10.75,15.5 C10.75,12.881 12.881,10.75 15.5,10.75 C18.119,10.75 20.25,12.881 20.25,15.5 Z M12.7419,17.198 L17.198,12.7419 C16.702,12.4359 16.124,12.25 15.5,12.25 C13.708,12.25 12.25,13.708 12.25,15.5 C12.25,16.124 12.4349,16.702 12.7419,17.198 Z M18.75,15.5 C18.75,14.876 18.5651,14.298 18.2581,13.802 L13.802,18.2581 C14.298,18.5641 14.876,18.75 15.5,18.75 C17.292,18.75 18.75,17.292 18.75,15.5 Z" id="Shape"></path>
                        </g>
                    </g>
                </g>
            </g>
        </g>
    </g>
</svg>