<?xml version="1.0" encoding="UTF-8"?>
<svg width="59px" height="79px" viewBox="0 0 59 79" version="1.1" xmlns="http://www.w3.org/2000/svg" xmlns:xlink="http://www.w3.org/1999/xlink">
    <title>pdf</title>
    <g id="dasboard---client-(company)" stroke="none" stroke-width="1" fill="none" fill-rule="evenodd">
        <g id="expert-details" transform="translate(-407, -1443)">
            <g id="Contact" transform="translate(352, 220)">
                <g id="pdf" transform="translate(55, 1223)">
                    <path d="M10.2702696,0 L36.645829,0 L59,23.3328557 L59,68.7154288 C59,74.4005653 54.4069612,79 48.7493669,79 L10.2702696,79 C4.59303879,79 0,74.4005653 0,68.7154288 L0,10.2845712 C0,4.59943471 4.59293912,0 10.2702696,0 L10.2702696,0 Z" id="Path" fill="#E5252A"></path>
                    <g id="Group" transform="translate(11, 0)" fill="#FFFFFF" fill-rule="nonzero">
                        <polygon id="Path" opacity="0.302" points="25.4316428 0 25.4316428 23.1771762 48 23.1771762"></polygon>
                        <path d="M0,59 L0,44.5562525 L6.18394483,44.5562525 C7.71502543,44.5562525 8.92798552,44.9711833 9.84263224,45.8208272 C10.757279,46.6506888 11.2146526,47.7769866 11.2146526,49.1798383 C11.2146526,50.58269 10.757279,51.7089878 9.84263224,52.5388493 C8.92798552,53.3884933 7.71502543,53.8034241 6.18394483,53.8034241 L3.71830986,53.8034241 L3.71830986,59 L0,59 Z M3.71830986,50.6618196 L5.76638654,50.6618196 C6.32309742,50.6618196 6.76056338,50.5432251 7.05887676,50.2666712 C7.35708959,50.0097998 7.51625039,49.6541163 7.51625039,49.1799382 C7.51625039,48.7057601 7.35719014,48.3500766 7.05887676,48.0932052 C6.76066392,47.8165514 6.32319796,47.6980568 5.76638654,47.6980568 L3.71830986,47.6980568 L3.71830986,50.6618196 Z M12.7456326,59 L12.7456326,44.5562525 L17.8955853,44.5562525 C18.9096698,44.5562525 19.8641318,44.6945294 20.7588709,44.9909657 C21.6536099,45.287302 22.4689194,45.7023327 23.1846905,46.2753228 C23.9005622,46.8285305 24.4771808,47.5793624 24.894739,48.5278185 C25.2923897,49.4762745 25.5111729,50.5630075 25.5111729,51.7880174 C25.5111729,52.9933449 25.2924902,54.0800779 24.894739,55.028434 C24.4771808,55.9768901 23.9005622,56.7277219 23.1846905,57.2809297 C22.4688189,57.8539198 21.6536099,58.2688506 20.7588709,58.5652868 C19.8641318,58.8616231 18.9096698,59 17.8955853,59 L12.7456326,59 Z M16.3844124,55.8583955 L17.4581193,55.8583955 C18.0347379,55.8583955 18.5716416,55.7991482 19.06873,55.6607713 C19.5459108,55.5224944 20.0032844,55.3050878 20.4407504,55.0087515 C20.8583087,54.7124152 21.1963369,54.2973845 21.4349272,53.7441768 C21.6735176,53.1909691 21.7928631,52.5388493 21.7928631,51.7880174 C21.7928631,51.0174032 21.6735176,50.3653833 21.4349272,49.8121756 C21.1963369,49.2589679 20.8583087,48.8440371 20.4407504,48.5476009 C20.0032844,48.2512646 19.5460113,48.033858 19.06873,47.8955811 C18.5716416,47.7573041 18.0347379,47.6979569 17.4581193,47.6979569 L16.3844124,47.6979569 L16.3844124,55.8583955 Z M27.3802817,59 L27.3802817,44.5562525 L37.7200023,44.5562525 L37.7200023,47.6979569 L31.0985915,47.6979569 L31.0985915,50.0096998 L36.3876968,50.0096998 L36.3876968,53.1316219 L31.0985915,53.1316219 L31.0985915,59 L27.3802817,59 Z" id="Shape"></path>
                    </g>
                </g>
            </g>
        </g>
    </g>
</svg>