<?xml version="1.0" encoding="UTF-8"?>
<svg width="45px" height="45px" viewBox="0 0 45 45" version="1.1" xmlns="http://www.w3.org/2000/svg" xmlns:xlink="http://www.w3.org/1999/xlink">
    <title>phone_2</title>
    <g id="dasboard---client-(company)" stroke="none" stroke-width="1" fill="none" fill-rule="evenodd">
        <g id="Contact-us" transform="translate(-374, -260)" fill-rule="nonzero">
            <g id="Group-2" transform="translate(352, 243)">
                <g id="phone_2" transform="translate(22, 17)">
                    <circle id="Ellipse" fill="#7288FA" cx="22.5" cy="22.5" r="22.5"></circle>
                    <g id="Group" transform="translate(14.8334, 14.1022)" fill="#FFFFFF">
                        <path d="M6.13237103,11.7932644 L7.24732103,13.4582644 C10.047321,12.2882644 12.287321,10.0392644 13.458321,7.23226444 L11.797121,6.12724444 C10.889121,5.52324444 10.612221,4.31426444 11.168221,3.37526444 L12.731221,0.736254442 C13.056221,0.187254442 13.692121,-0.0957455582 14.318121,0.0292544418 L14.335221,0.0322444418 C16.895221,0.544244442 18.533321,3.11726444 17.841321,5.63426444 C16.205321,11.5862644 11.566221,16.2112644 5.62724103,17.8412644 C3.11024103,18.5322644 0.541341033,16.8922644 0.0293410332,14.3332644 C-0.0956589668,13.7092644 0.186221033,13.0752644 0.732221033,12.7492644 L3.37529103,11.1732644 C4.31429103,10.6142644 5.52437103,10.8862644 6.13237103,11.7932644 Z" id="Path"></path>
                    </g>
                </g>
            </g>
        </g>
    </g>
</svg>