<?xml version="1.0" encoding="UTF-8"?>
<svg width="18.0004854px" height="17.9998326px" viewBox="0 0 18.0004854 17.9998326" version="1.1" xmlns="http://www.w3.org/2000/svg" xmlns:xlink="http://www.w3.org/1999/xlink">
    <title>phone</title>
    <g id="dasboard---client-(company)" stroke="none" stroke-width="1" fill="none" fill-rule="evenodd">
        <g id="expert-details" transform="translate(-848, -331)" fill="#25314C" fill-rule="nonzero">
            <g id="Contact" transform="translate(352, 220)">
                <g id="Edit-avt" transform="translate(26, 15)">
                    <g id="Group-3" transform="translate(470, 94)">
                        <g id="phone" transform="translate(0, 2)">
                            <path d="M14.6251457,11.1732644 L17.2682457,12.7492644 C17.8142457,13.0752644 18.0961457,13.7092644 17.9711457,14.3332644 C17.4601457,16.8922644 14.8902457,18.5322644 12.3732457,17.8412644 C6.4341957,16.2112644 1.7950857,11.5862644 0.159085704,5.63426444 C-0.532914296,3.11626444 1.1051957,0.544244442 3.6651957,0.0322444418 L3.6820357,0.0292544418 C4.3070357,-0.0957455582 4.9441957,0.187254442 5.2691957,0.736254442 L6.8321857,3.37526444 C7.3881457,4.31426444 7.1120457,5.52324444 6.2030357,6.12724444 L4.5421457,7.23226444 C5.7141457,10.0392644 7.9540457,12.2882644 10.7530457,13.4582644 L11.8680457,11.7932644 C12.4770457,10.8862644 13.6871457,10.6142644 14.6251457,11.1732644 Z" id="Path"></path>
                        </g>
                    </g>
                </g>
            </g>
        </g>
    </g>
</svg>