<?xml version="1.0" encoding="UTF-8"?>
<svg width="17.5px" height="18px" viewBox="0 0 17.5 18" version="1.1" xmlns="http://www.w3.org/2000/svg" xmlns:xlink="http://www.w3.org/1999/xlink">
    <title>trash_2</title>
    <g id="dasboard---service-provider-(expert)" stroke="none" stroke-width="1" fill="none" fill-rule="evenodd">
        <g id="Experience" transform="translate(-1340, -258)" fill="#25314C" fill-rule="nonzero">
            <g id="Contact" transform="translate(352, 220)">
                <g id="Group" transform="translate(25, 25)">
                    <g id="trash_2" transform="translate(963, 13)">
                        <path d="M17.5,3 C17.5,3.414 17.164,3.75 16.75,3.75 L0.75,3.75 C0.336,3.75 0,3.414 0,3 C0,2.586 0.336,2.25 0.75,2.25 L4.964,2.25 C5.057,2.068 5.12899,1.862 5.20599,1.632 L5.408,1.02499 C5.612,0.41299 6.18499,0 6.831,0 L10.669,0 C11.315,0 11.888,0.41299 12.092,1.02499 L12.294,1.632 C12.371,1.862 12.443,2.068 12.536,2.25 L16.75,2.25 C17.164,2.25 17.5,2.586 17.5,3 Z M15.31,4.75 C15.483,4.75 15.621,4.89701 15.609,5.07001 L14.94,15.2 C14.83,16.78 14,18 11.94,18 L5.56,18 C3.5,18 2.67,16.78 2.56,15.2 L1.891,5.07001 C1.88,4.89701 2.017,4.75 2.19,4.75 L15.31,4.75 Z M7.5,8 C7.5,7.59 7.16,7.25 6.75,7.25 C6.34,7.25 6,7.59 6,8 L6,13 C6,13.41 6.34,13.75 6.75,13.75 C7.16,13.75 7.5,13.41 7.5,13 L7.5,8 Z M11.5,8 C11.5,7.59 11.16,7.25 10.75,7.25 C10.34,7.25 10,7.59 10,8 L10,13 C10,13.41 10.34,13.75 10.75,13.75 C11.16,13.75 11.5,13.41 11.5,13 L11.5,8 Z" id="Shape"></path>
                    </g>
                </g>
            </g>
        </g>
    </g>
</svg>