<?xml version="1.0" encoding="UTF-8"?>
<svg width="23.3333333px" height="24px" viewBox="0 0 23.3333333 24" version="1.1" xmlns="http://www.w3.org/2000/svg" xmlns:xlink="http://www.w3.org/1999/xlink">
    <title>Group</title>
    <g id="dasboard---client-(company)" stroke="none" stroke-width="1" fill="none" fill-rule="evenodd">
        <g id="Project-(files)" transform="translate(-1327.6667, -392)" fill="#7288FA" fill-rule="nonzero">
            <g id="Contact" transform="translate(352, 294)">
                <g id="row" transform="translate(25, 80)">
                    <g id="Group" transform="translate(950.6667, 18)">
                        <path d="M23.3333333,4 C23.3333333,4.552 22.8853333,5 22.3333333,5 L1,5 C0.448,5 0,4.552 0,4 C0,3.448 0.448,3 1,3 L6.61866667,3 C6.74266667,2.75733333 6.83865333,2.48266667 6.94132,2.176 L7.21066667,1.36665333 C7.48266667,0.550653333 8.24665333,0 9.108,0 L14.2253333,0 C15.0866667,0 15.8506667,0.550653333 16.1226667,1.36665333 L16.392,2.176 C16.4946667,2.48266667 16.5906667,2.75733333 16.7146667,3 L22.3333333,3 C22.8853333,3 23.3333333,3.448 23.3333333,4 Z M20.4133333,6.33333333 C20.644,6.33333333 20.828,6.52934667 20.812,6.76001333 L19.92,20.2666667 C19.7733333,22.3733333 18.6666667,24 15.92,24 L7.41333333,24 C4.66666667,24 3.56,22.3733333 3.41333333,20.2666667 L2.52133333,6.76001333 C2.50666667,6.52934667 2.68933333,6.33333333 2.92,6.33333333 L20.4133333,6.33333333 Z M10,10.6666667 C10,10.12 9.54666667,9.66666667 9,9.66666667 C8.45333333,9.66666667 8,10.12 8,10.6666667 L8,17.3333333 C8,17.88 8.45333333,18.3333333 9,18.3333333 C9.54666667,18.3333333 10,17.88 10,17.3333333 L10,10.6666667 Z M15.3333333,10.6666667 C15.3333333,10.12 14.88,9.66666667 14.3333333,9.66666667 C13.7866667,9.66666667 13.3333333,10.12 13.3333333,10.6666667 L13.3333333,17.3333333 C13.3333333,17.88 13.7866667,18.3333333 14.3333333,18.3333333 C14.88,18.3333333 15.3333333,17.88 15.3333333,17.3333333 L15.3333333,10.6666667 Z" id="Shape"></path>
                    </g>
                </g>
            </g>
        </g>
    </g>
</svg>