<?xml version="1.0" encoding="UTF-8"?>
<svg width="24px" height="19px" viewBox="0 0 24 19" version="1.1" xmlns="http://www.w3.org/2000/svg" xmlns:xlink="http://www.w3.org/1999/xlink">
    <title>view</title>
    <g id="dasboard---client-(company)" stroke="none" stroke-width="1" fill="none" fill-rule="evenodd">
        <g id="Project-(files)" transform="translate(-1284, -395)" fill="#7288FA" fill-rule="nonzero">
            <g id="Contact" transform="translate(352, 294)">
                <g id="row" transform="translate(25, 80)">
                    <g id="view" transform="translate(907, 21)">
                        <path d="M15.6665796,9.5 C15.6665796,11.5587857 14.0225888,13.2321429 11.9999333,13.2321429 C9.9772779,13.2321429 8.33334037,11.5587857 8.33334037,9.5 C8.33334037,9.02635714 8.42923317,8.57714286 8.58789896,8.15914286 C8.84656419,8.36814286 9.15865579,8.512 9.51461381,8.512 C10.3506092,8.512 11.0292721,7.82121429 11.0292721,6.97028571 C11.0292721,6.607915 10.8879395,6.29024857 10.6826073,6.02696286 C11.0932717,5.86546286 11.5346026,5.76785714 11.9999333,5.76785714 C14.0225888,5.76785714 15.6665796,7.44121429 15.6665796,9.5 Z M23.456003,11.5046357 C21.8200121,14.2922071 18.1452325,19 11.9999333,19 C5.85468747,19 2.17998789,14.2922071 0.543996978,11.5046357 C-0.181332326,10.2696357 -0.181332326,8.73036429 0.543996978,7.49536429 C2.17998789,4.70786071 5.85468747,0 11.9999333,0 C18.1452325,0 21.8200121,4.70786071 23.456003,7.49536429 C24.1813323,8.73036429 24.1813323,10.2696357 23.456003,11.5046357 Z M17.6665685,9.5 C17.6665685,6.32021429 15.1252493,3.73214286 11.9999333,3.73214286 C8.8746707,3.73214286 6.33335148,6.32021429 6.33335148,9.5 C6.33335148,12.6797857 8.8746707,15.2678571 11.9999333,15.2678571 C15.1252493,15.2678571 17.6665685,12.6797857 17.6665685,9.5 Z" id="Shape"></path>
                    </g>
                </g>
            </g>
        </g>
    </g>
</svg>