<?xml version="1.0" encoding="UTF-8"?>
<svg width="70px" height="80px" viewBox="0 0 70 80" version="1.1" xmlns="http://www.w3.org/2000/svg" xmlns:xlink="http://www.w3.org/1999/xlink">
    <title>jpg</title>
    <g id="dasboard---client-(company)" stroke="none" stroke-width="1" fill="none" fill-rule="evenodd">
        <g id="expert-details" transform="translate(-596, -1442)" fill-rule="nonzero">
            <g id="Contact" transform="translate(352, 220)">
                <g id="jpg" transform="translate(244, 1222)">
                    <g id="File" transform="translate(7.1515, 0)">
                        <path d="M35.0546509,0 L5.21525764,0 C2.34218157,0 0,2.34329233 0,5.23335286 L0,74.7666471 C0,77.6567077 2.34218157,79.9843781 5.23087218,80 L57.6176667,80 C60.5063573,80 62.8329244,77.6567077 62.8485389,74.7666471 L62.6923935,23.1204843 L35.0546509,0 Z" id="Path" fill="#4EB3F2"></path>
                        <path d="M35.0546509,0 L34.9765782,22.5737161 C34.9765782,22.5737161 35.0546509,23.1204843 35.5230872,23.1204843 L62.6923935,23.1204843 L35.0546509,0 Z" id="Path" fill="#0077CC"></path>
                    </g>
                    <path d="M2.12357796,38.5393478 L54.8382779,38.5393478 C56.0093687,38.5393478 56.9618559,39.4922867 56.9618559,40.6639328 L56.9618559,64.2218317 C56.9618559,65.3934778 56.0093687,66.3464167 54.8382779,66.3464167 L2.12357796,66.3464167 C0.952487174,66.3464167 0,65.3934778 0,64.2218317 L0,40.6639328 C0,39.4922867 0.952487174,38.5393478 2.12357796,38.5393478 Z" id="Path" fill="#0077CC"></path>
                    <g id="Group" transform="translate(10.9458, 46.5378)" fill="#FFFFFF">
                        <path d="M5.77738122,0.187463386 L9.39995539,0.187463386 L9.39995539,6.54559656 C9.39995539,7.87346221 9.27503904,8.90451084 9.04082088,9.59187659 C8.77537363,10.3261082 8.27570823,10.9509861 7.61989739,11.3571568 C6.90162837,11.8414372 5.99598483,12.0757665 4.87173768,12.0757665 C3.68503234,12.0757665 2.7793888,11.919547 2.12357796,11.591486 C1.49899621,11.2790471 0.968101718,10.7947666 0.624581753,10.1855106 C0.249832701,9.48252294 0.0312290877,8.7014255 0,7.90470611 L3.45081419,7.43604765 C3.43519964,7.82659637 3.48204327,8.21714509 3.59134508,8.59207186 C3.6694178,8.82640109 3.82556324,9.04510838 4.02855231,9.20132787 C4.20031229,9.31068151 4.40330136,9.3731693 4.62190497,9.35754735 C4.98103948,9.38879125 5.32455945,9.20132787 5.51193397,8.90451084 C5.6993085,8.60769381 5.79299576,8.0921695 5.79299576,7.3891818 L5.77738122,0.187463386 Z" id="Path"></path>
                        <path d="M11.7889806,0.187463386 L17.80058,0.187463386 C19.1122017,0.187463386 20.0959179,0.499902363 20.7361142,1.12478032 C21.3919251,1.74965827 21.7198305,2.64010935 21.7198305,3.78051162 C21.7198305,4.96777973 21.360696,5.88947471 20.6580415,6.54559656 C19.955387,7.20171841 18.8623689,7.54540129 17.4102164,7.54540129 L15.4271693,7.54540129 L15.4271693,11.8883031 L11.8045951,11.8883031 L11.8045951,0.187463386 L11.7889806,0.187463386 Z M15.4271693,5.18648701 L16.3171983,5.18648701 C17.0198528,5.18648701 17.5039036,5.06151142 17.7849654,4.82718219 C18.0660272,4.59285296 18.2221727,4.24917008 18.2065581,3.88986526 C18.2221727,3.54618239 18.0816418,3.20249951 17.8318091,2.95254833 C17.5819764,2.70259715 17.1291546,2.56199961 16.4577292,2.56199961 L15.4271693,2.56199961 L15.4271693,5.18648701 Z" id="Shape"></path>
                        <path d="M29.4802588,7.65475493 L29.4802588,5.21773091 L35.0702654,5.21773091 L35.0702654,10.2011326 C34.0084765,10.9353642 33.0559893,11.4196446 32.2284185,11.6852177 C31.2759313,11.9664128 30.292215,12.1070103 29.3084988,12.0757665 C27.9188044,12.0757665 26.7945572,11.8414372 25.9201428,11.3727788 C25.0457283,10.8884983 24.3274593,10.1542667 23.8902521,9.26381566 C23.3905867,8.26401094 23.140754,7.15485257 23.171983,6.0456942 C23.171983,4.7646944 23.4374303,3.65553603 23.9527102,2.7182191 C24.4836047,1.78090217 25.295561,1.01542667 26.2636627,0.562390158 C27.0600045,0.187463386 28.1217934,0 29.4646442,0 C30.7606513,0 31.7287531,0.124975591 32.3689494,0.343682874 C32.9935311,0.562390158 33.5400402,0.93731693 33.9616328,1.43721929 C34.4144546,1.9839875 34.74236,2.6244874 34.91412,3.31185315 L31.4320767,3.93673111 C31.3071604,3.53056044 31.0573277,3.17125561 30.6981932,2.92130443 C30.3078296,2.67135325 29.8550078,2.54637766 29.3865715,2.57762156 C28.6683025,2.54637766 27.965648,2.85881664 27.4972117,3.40558485 C27.0287754,3.95235306 26.7945572,4.82718219 26.7945572,6.0144503 C26.7945572,7.27982816 27.0287754,8.18590119 27.5128262,8.7326694 C27.9812625,9.27943761 28.6526879,9.54501074 29.5114878,9.54501074 C29.9018514,9.54501074 30.292215,9.48252294 30.6669641,9.3731693 C31.1041713,9.21694981 31.525764,9.01386448 31.9317421,8.77953525 L31.9317421,7.68599883 L29.4802588,7.65475493 Z" id="Path"></path>
                    </g>
                </g>
            </g>
        </g>
    </g>
</svg>