<?xml version="1.0" encoding="UTF-8"?>
<svg width="70px" height="80px" viewBox="0 0 70 80" version="1.1" xmlns="http://www.w3.org/2000/svg" xmlns:xlink="http://www.w3.org/1999/xlink">
    <title>png</title>
    <g id="dasboard---client-(company)" stroke="none" stroke-width="1" fill="none" fill-rule="evenodd">
        <g id="expert-details" transform="translate(-496, -1442)" fill-rule="nonzero">
            <g id="Contact" transform="translate(352, 220)">
                <g id="png" transform="translate(144, 1222)">
                    <g id="File" transform="translate(7.1515, 0)">
                        <path d="M35.0546509,0 L5.21525764,0 C2.34218157,0 0,2.34329233 0,5.23335286 L0,74.7666471 C0,77.6567077 2.34218157,79.9843781 5.23087218,80 L57.6176667,80 C60.5063573,80 62.8329244,77.6567077 62.8485389,74.7666471 L62.6923935,23.1204843 L35.0546509,0 Z" id="Path" fill="#4EB3F2"></path>
                        <path d="M35.0546509,0 L34.9765782,22.5737161 C34.9765782,22.5737161 35.0546509,23.1204843 35.5230872,23.1204843 L62.6923935,23.1204843 L35.0546509,0 Z" id="Path" fill="#0077CC"></path>
                    </g>
                    <path d="M2.12357796,38.5393478 L54.8382779,38.5393478 C56.0093687,38.5393478 56.9618559,39.4922867 56.9618559,40.6639328 L56.9618559,64.2218317 C56.9618559,65.3934778 56.0093687,66.3464167 54.8382779,66.3464167 L2.12357796,66.3464167 C0.952487174,66.3464167 0,65.3934778 0,64.2218317 L0,40.6639328 C0,39.4922867 0.952487174,38.5393478 2.12357796,38.5393478 Z" id="Path" fill="#0077CC"></path>
                    <g id="Group" transform="translate(10.0402, 46.5378)" fill="#FFFFFF">
                        <path d="M0,0.187463386 L6.01159938,0.187463386 C7.32322106,0.187463386 8.30693732,0.499902363 8.94713362,1.12478032 C9.58732991,1.74965827 9.93084988,2.64010935 9.93084988,3.78051162 C9.93084988,4.96777973 9.57171537,5.88947471 8.8690609,6.54559656 C8.16640642,7.20171841 7.07338836,7.54540129 5.62123578,7.54540129 L3.63818871,7.54540129 L3.63818871,11.8883031 L0,11.8883031 L0,0.187463386 Z M3.62257417,5.18648701 L4.51260317,5.18648701 C5.21525764,5.18648701 5.6993085,5.06151142 5.98037029,4.82718219 C6.26143208,4.59285296 6.41757752,4.24917008 6.40196297,3.88986526 C6.41757752,3.54618239 6.27704662,3.20249951 6.02721392,2.95254833 C5.77738122,2.70259715 5.32455945,2.56199961 4.65313406,2.56199961 L3.62257417,2.56199961 L3.62257417,5.18648701 Z" id="Shape"></path>
                        <polygon id="Path" points="11.8358242 0.187463386 15.2085657 0.187463386 19.6118671 6.65495021 19.6118671 0.187463386 23.0158376 0.187463386 23.0158376 11.8883031 19.6118671 11.8883031 15.2397948 5.46768209 15.2397948 11.8883031 11.8358242 11.8883031"></polygon>
                        <path d="M31.2915458,7.65475493 L31.2915458,5.21773091 L36.8815525,5.21773091 L36.8815525,10.2011326 C35.8197636,10.9353642 34.8672764,11.4196446 34.0397056,11.6852177 C33.0872184,11.9664128 32.1035021,12.1070103 31.1197859,12.0757665 C29.7300915,12.0757665 28.6058443,11.8414372 27.7314298,11.3727788 C26.8570154,10.8884983 26.1387464,10.1542667 25.7015391,9.26381566 C25.2018737,8.26401094 24.952041,7.15485257 24.9832701,6.0456942 C24.9832701,4.7646944 25.2487174,3.65553603 25.7796119,2.7182191 C26.3105064,1.78090217 27.1068481,1.01542667 28.0905644,0.562390158 C28.8869061,0.187463386 29.9486951,0 31.2915458,0 C32.587553,0 33.5556547,0.124975591 34.195851,0.343682874 C34.8204327,0.562390158 35.3669418,0.93731693 35.7885345,1.43721929 C36.2413562,1.9839875 36.5692617,2.6244874 36.7410216,3.31185315 L33.2589784,3.93673111 C33.134062,3.53056044 32.8842293,3.17125561 32.5250948,2.92130443 C32.1347312,2.67135325 31.6819094,2.54637766 31.2134731,2.57762156 C30.4952041,2.54637766 29.7925496,2.85881664 29.3241133,3.40558485 C28.855677,3.95235306 28.6214588,4.82718219 28.6214588,6.0144503 C28.6214588,7.27982816 28.855677,8.18590119 29.3397279,8.7326694 C29.8081642,9.27943761 30.4795896,9.54501074 31.3383895,9.54501074 C31.7287531,9.54501074 32.1191167,9.48252294 32.4938657,9.3731693 C32.9310729,9.21694981 33.3526656,9.01386448 33.7586438,8.77953525 L33.7586438,7.68599883 L31.2915458,7.65475493 Z" id="Path"></path>
                    </g>
                </g>
            </g>
        </g>
    </g>
</svg>